<svg width="200" height="200" viewBox="0 0 200 200" fill="none" xmlns="http://www.w3.org/2000/svg">
<path d="M176 56.9999C182.627 56.9999 188 62.3725 188 68.9999V180C188 186.627 182.627 192 176 192H23C16.3726 192 11 186.627 11 180V68.9999C11.0001 62.3725 16.3726 56.9999 23 56.9999H39V37.9999H33.7578C31.1301 37.9998 29 35.8698 29 33.2421V12.7577C29.0001 10.1301 31.1302 7.99992 33.7578 7.99988H165.242C167.87 7.99992 170 10.1301 170 12.7577V33.2421C170 35.8698 167.87 37.9998 165.242 37.9999H160V56.9999H176Z" fill="#009E73"/>
</svg>
