<svg width="200" height="200" viewBox="0 0 200 200" fill="none" xmlns="http://www.w3.org/2000/svg">
<mask id="path-1-inside-1_29_8" fill="white">
<path d="M176 56.9999C182.627 56.9999 188 62.3725 188 68.9999V180C188 186.627 182.627 192 176 192H23C16.3726 192 11 186.627 11 180V68.9999C11.0001 62.3725 16.3726 56.9999 23 56.9999H39V37.9999H33.7578C31.1301 37.9998 29 35.8698 29 33.2421V12.7577C29.0001 10.1301 31.1302 7.99992 33.7578 7.99988H165.242C167.87 7.99992 170 10.1301 170 12.7577V33.2421C170 35.8698 167.87 37.9998 165.242 37.9999H160V56.9999H176Z"/>
</mask>
<path d="M188 68.9999H190V68.9999L188 68.9999ZM176 192V194V192ZM11 68.9999L9 68.9999V68.9999H11ZM23 56.9999V54.9999V56.9999ZM39 56.9999V58.9999H41V56.9999H39ZM39 37.9999H41V35.9999H39V37.9999ZM33.7578 37.9999L33.7578 39.9999H33.7578V37.9999ZM29 12.7577L27 12.7576V12.7577H29ZM33.7578 7.99988V5.99988H33.7578L33.7578 7.99988ZM165.242 7.99988L165.242 5.99988H165.242V7.99988ZM170 12.7577H172V12.7576L170 12.7577ZM165.242 37.9999V39.9999H165.242L165.242 37.9999ZM160 37.9999V35.9999H158V37.9999H160ZM160 56.9999H158V58.9999H160V56.9999ZM176 56.9999V58.9999C181.523 58.9999 186 63.4771 186 68.9999L188 68.9999L190 68.9999C190 61.268 183.732 54.9999 176 54.9999V56.9999ZM188 68.9999H186V180H188H190V68.9999H188ZM188 180H186C186 185.523 181.523 190 176 190V192V194C183.732 194 190 187.732 190 180H188ZM176 192V190H23V192V194H176V192ZM23 192V190C17.4772 190 13 185.523 13 180H11H9C9 187.732 15.268 194 23 194V192ZM11 180H13V68.9999H11H9V180H11ZM11 68.9999L13 68.9999C13.0001 63.4771 17.4772 58.9999 23 58.9999V56.9999V54.9999C15.268 54.9999 9.00008 61.268 9 68.9999L11 68.9999ZM23 56.9999V58.9999H39V56.9999V54.9999H23V56.9999ZM39 56.9999H41V37.9999H39H37V56.9999H39ZM39 37.9999V35.9999H33.7578V37.9999V39.9999H39V37.9999ZM33.7578 37.9999L33.7578 35.9999C32.2347 35.9999 31 34.7651 31 33.2421H29H27C27 36.9744 30.0256 39.9998 33.7578 39.9999L33.7578 37.9999ZM29 33.2421H31V12.7577H29H27V33.2421H29ZM29 12.7577L31 12.7578C31.0001 11.2346 32.2348 9.9999 33.7578 9.99988L33.7578 7.99988L33.7578 5.99988C30.0256 5.99994 27.0002 9.02556 27 12.7576L29 12.7577ZM33.7578 7.99988V9.99988H165.242V7.99988V5.99988H33.7578V7.99988ZM165.242 7.99988L165.242 9.99988C166.765 9.9999 168 11.2346 168 12.7578L170 12.7577L172 12.7576C172 9.02556 168.974 5.99994 165.242 5.99988L165.242 7.99988ZM170 12.7577H168V33.2421H170H172V12.7577H170ZM170 33.2421H168C168 34.7651 166.765 35.9999 165.242 35.9999L165.242 37.9999L165.242 39.9999C168.974 39.9998 172 36.9744 172 33.2421H170ZM165.242 37.9999V35.9999H160V37.9999V39.9999H165.242V37.9999ZM160 37.9999H158V56.9999H160H162V37.9999H160ZM160 56.9999V58.9999H176V56.9999V54.9999H160V56.9999Z" fill="#555555" mask="url(#path-1-inside-1_29_8)"/>
<path d="M43.2 148.28H95.68V152.696H43.2V148.28ZM66.752 135.16H72V150.648H66.752V135.16ZM66.688 114.232H71.424V115.512C71.424 118.456 70.8053 121.144 69.568 123.576C68.3307 125.965 66.624 128.099 64.448 129.976C62.272 131.811 59.7973 133.347 57.024 134.584C54.2507 135.779 51.2853 136.632 48.128 137.144L46.08 132.984C48.896 132.515 51.5413 131.768 54.016 130.744C56.5333 129.72 58.7307 128.44 60.608 126.904C62.528 125.368 64.0213 123.64 65.088 121.72C66.1547 119.8 66.688 117.731 66.688 115.512V114.232ZM67.392 114.232H72.064V115.512C72.064 117.731 72.5973 119.8 73.664 121.72C74.7307 123.64 76.2027 125.368 78.08 126.904C80 128.44 82.1973 129.72 84.672 130.744C87.1893 131.768 89.856 132.515 92.672 132.984L90.624 137.144C87.5093 136.632 84.544 135.779 81.728 134.584C78.9547 133.347 76.48 131.811 74.304 129.976C72.1707 128.099 70.4853 125.965 69.248 123.576C68.0107 121.144 67.392 118.456 67.392 115.512V114.232ZM48.064 111.224H90.688V115.576H48.064V111.224ZM66.752 103.288H72V112.824H66.752V103.288ZM102.011 133.944H154.491V138.296H102.011V133.944ZM108.667 103.544H147.771V117.624H114.043V125.368H108.795V113.656H142.523V107.768H108.667V103.544ZM108.795 123.64H148.987V127.864H108.795V123.64ZM125.627 125.816H130.875V136.056H125.627V125.816ZM107.899 142.712H148.091V159.416H142.779V147H107.899V142.712Z" fill="black"/>
</svg>
