<svg width="200" height="200" viewBox="0 0 200 200" fill="none" xmlns="http://www.w3.org/2000/svg">
<mask id="path-1-inside-1_7_26" fill="white">
<path d="M176 56.9999C182.627 56.9999 188 62.3725 188 68.9999V180C188 186.627 182.627 192 176 192H23C16.3726 192 11 186.627 11 180V68.9999C11.0001 62.3725 16.3726 56.9999 23 56.9999H39V37.9999H33.7578C31.1301 37.9998 29 35.8698 29 33.2421V12.7577C29.0001 10.1301 31.1302 7.99992 33.7578 7.99988H165.242C167.87 7.99992 170 10.1301 170 12.7577V33.2421C170 35.8698 167.87 37.9998 165.242 37.9999H160V56.9999H176Z"/>
</mask>
<path d="M188 68.9999H190V68.9999L188 68.9999ZM176 192V194V192ZM11 68.9999L9 68.9999V68.9999H11ZM23 56.9999V54.9999V56.9999ZM39 56.9999V58.9999H41V56.9999H39ZM39 37.9999H41V35.9999H39V37.9999ZM33.7578 37.9999L33.7578 39.9999H33.7578V37.9999ZM29 12.7577L27 12.7576V12.7577H29ZM33.7578 7.99988V5.99988H33.7578L33.7578 7.99988ZM165.242 7.99988L165.242 5.99988H165.242V7.99988ZM170 12.7577H172V12.7576L170 12.7577ZM165.242 37.9999V39.9999H165.242L165.242 37.9999ZM160 37.9999V35.9999H158V37.9999H160ZM160 56.9999H158V58.9999H160V56.9999ZM176 56.9999V58.9999C181.523 58.9999 186 63.4771 186 68.9999L188 68.9999L190 68.9999C190 61.268 183.732 54.9999 176 54.9999V56.9999ZM188 68.9999H186V180H188H190V68.9999H188ZM188 180H186C186 185.523 181.523 190 176 190V192V194C183.732 194 190 187.732 190 180H188ZM176 192V190H23V192V194H176V192ZM23 192V190C17.4772 190 13 185.523 13 180H11H9C9 187.732 15.268 194 23 194V192ZM11 180H13V68.9999H11H9V180H11ZM11 68.9999L13 68.9999C13.0001 63.4771 17.4772 58.9999 23 58.9999V56.9999V54.9999C15.268 54.9999 9.00008 61.268 9 68.9999L11 68.9999ZM23 56.9999V58.9999H39V56.9999V54.9999H23V56.9999ZM39 56.9999H41V37.9999H39H37V56.9999H39ZM39 37.9999V35.9999H33.7578V37.9999V39.9999H39V37.9999ZM33.7578 37.9999L33.7578 35.9999C32.2347 35.9999 31 34.7651 31 33.2421H29H27C27 36.9744 30.0256 39.9998 33.7578 39.9999L33.7578 37.9999ZM29 33.2421H31V12.7577H29H27V33.2421H29ZM29 12.7577L31 12.7578C31.0001 11.2346 32.2348 9.9999 33.7578 9.99988L33.7578 7.99988L33.7578 5.99988C30.0256 5.99994 27.0002 9.02556 27 12.7576L29 12.7577ZM33.7578 7.99988V9.99988H165.242V7.99988V5.99988H33.7578V7.99988ZM165.242 7.99988L165.242 9.99988C166.765 9.9999 168 11.2346 168 12.7578L170 12.7577L172 12.7576C172 9.02556 168.974 5.99994 165.242 5.99988L165.242 7.99988ZM170 12.7577H168V33.2421H170H172V12.7577H170ZM170 33.2421H168C168 34.7651 166.765 35.9999 165.242 35.9999L165.242 37.9999L165.242 39.9999C168.974 39.9998 172 36.9744 172 33.2421H170ZM165.242 37.9999V35.9999H160V37.9999V39.9999H165.242V37.9999ZM160 37.9999H158V56.9999H160H162V37.9999H160ZM160 56.9999V58.9999H176V56.9999V54.9999H160V56.9999Z" fill="#555555" mask="url(#path-1-inside-1_7_26)"/>
<path d="M67.264 105.848H72.832C72.832 110.669 71.744 115.043 69.568 118.968C67.392 122.851 64.2987 126.179 60.288 128.952C56.32 131.725 51.5627 133.923 46.016 135.544L43.84 131.384C48.704 129.976 52.8853 128.141 56.384 125.88C59.8827 123.619 62.5707 120.995 64.448 118.008C66.3253 114.979 67.264 111.672 67.264 108.088V105.848ZM46.784 105.848H70.848V110.136H46.784V105.848ZM85.504 102.136H90.816V135.096H85.504V102.136ZM72.96 116.984H86.464V121.4H72.96V116.984ZM53.504 137.592H90.816V159.16H53.504V137.592ZM85.568 141.816H58.688V154.872H85.568V141.816ZM132.987 117.112H145.979V121.528H132.987V117.112ZM144.379 102.072H149.691V136.568H144.379V102.072ZM130.619 138.36C134.63 138.36 138.064 138.787 140.923 139.64C143.824 140.493 146.043 141.731 147.579 143.352C149.115 144.931 149.883 146.872 149.883 149.176C149.883 152.589 148.155 155.235 144.699 157.112C141.286 158.989 136.592 159.928 130.619 159.928C124.646 159.928 119.931 158.989 116.475 157.112C113.062 155.235 111.355 152.589 111.355 149.176C111.355 146.872 112.123 144.931 113.659 143.352C115.238 141.731 117.456 140.493 120.315 139.64C123.216 138.787 126.651 138.36 130.619 138.36ZM130.619 142.52C127.718 142.52 125.222 142.776 123.131 143.288C121.04 143.8 119.419 144.547 118.267 145.528C117.158 146.509 116.603 147.725 116.603 149.176C116.603 150.541 117.158 151.715 118.267 152.696C119.419 153.677 121.04 154.445 123.131 155C125.222 155.512 127.718 155.768 130.619 155.768C133.563 155.768 136.059 155.512 138.107 155C140.198 154.445 141.798 153.677 142.907 152.696C144.059 151.715 144.635 150.541 144.635 149.176C144.635 147.725 144.059 146.509 142.907 145.528C141.798 144.547 140.198 143.8 138.107 143.288C136.059 142.776 133.563 142.52 130.619 142.52ZM116.795 107.96H121.147V112.632C121.147 116.173 120.464 119.501 119.099 122.616C117.776 125.688 115.899 128.397 113.467 130.744C111.035 133.048 108.219 134.819 105.019 136.056L102.267 131.832C104.443 131.064 106.406 130.019 108.155 128.696C109.947 127.373 111.483 125.859 112.763 124.152C114.086 122.445 115.088 120.611 115.771 118.648C116.454 116.685 116.795 114.68 116.795 112.632V107.96ZM117.819 107.96H122.171V112.568C122.171 115.043 122.747 117.453 123.899 119.8C125.051 122.147 126.694 124.216 128.827 126.008C130.96 127.8 133.414 129.208 136.187 130.232L133.499 134.456C130.342 133.304 127.59 131.64 125.243 129.464C122.896 127.245 121.062 124.685 119.739 121.784C118.459 118.883 117.819 115.811 117.819 112.568V107.96ZM103.931 106.296H134.843V110.648H103.931V106.296Z" fill="black"/>
</svg>
