<svg width="200" height="200" viewBox="0 0 200 200" fill="none" xmlns="http://www.w3.org/2000/svg">
<mask id="path-1-inside-1_7_41" fill="white">
<path d="M176 56.9999C182.627 56.9999 188 62.3725 188 68.9999V180C188 186.627 182.627 192 176 192H23C16.3726 192 11 186.627 11 180V68.9999C11.0001 62.3725 16.3726 56.9999 23 56.9999H39V37.9999H33.7578C31.1301 37.9998 29 35.8698 29 33.2421V12.7577C29.0001 10.1301 31.1302 7.99992 33.7578 7.99988H165.242C167.87 7.99992 170 10.1301 170 12.7577V33.2421C170 35.8698 167.87 37.9998 165.242 37.9999H160V56.9999H176Z"/>
</mask>
<path d="M188 68.9999H190V68.9999L188 68.9999ZM176 192V194V192ZM11 68.9999L9 68.9999V68.9999H11ZM23 56.9999V54.9999V56.9999ZM39 56.9999V58.9999H41V56.9999H39ZM39 37.9999H41V35.9999H39V37.9999ZM33.7578 37.9999L33.7578 39.9999H33.7578V37.9999ZM29 12.7577L27 12.7576V12.7577H29ZM33.7578 7.99988V5.99988H33.7578L33.7578 7.99988ZM165.242 7.99988L165.242 5.99988H165.242V7.99988ZM170 12.7577H172V12.7576L170 12.7577ZM165.242 37.9999V39.9999H165.242L165.242 37.9999ZM160 37.9999V35.9999H158V37.9999H160ZM160 56.9999H158V58.9999H160V56.9999ZM176 56.9999V58.9999C181.523 58.9999 186 63.4771 186 68.9999L188 68.9999L190 68.9999C190 61.268 183.732 54.9999 176 54.9999V56.9999ZM188 68.9999H186V180H188H190V68.9999H188ZM188 180H186C186 185.523 181.523 190 176 190V192V194C183.732 194 190 187.732 190 180H188ZM176 192V190H23V192V194H176V192ZM23 192V190C17.4772 190 13 185.523 13 180H11H9C9 187.732 15.268 194 23 194V192ZM11 180H13V68.9999H11H9V180H11ZM11 68.9999L13 68.9999C13.0001 63.4771 17.4772 58.9999 23 58.9999V56.9999V54.9999C15.268 54.9999 9.00008 61.268 9 68.9999L11 68.9999ZM23 56.9999V58.9999H39V56.9999V54.9999H23V56.9999ZM39 56.9999H41V37.9999H39H37V56.9999H39ZM39 37.9999V35.9999H33.7578V37.9999V39.9999H39V37.9999ZM33.7578 37.9999L33.7578 35.9999C32.2347 35.9999 31 34.7651 31 33.2421H29H27C27 36.9744 30.0256 39.9998 33.7578 39.9999L33.7578 37.9999ZM29 33.2421H31V12.7577H29H27V33.2421H29ZM29 12.7577L31 12.7578C31.0001 11.2346 32.2348 9.9999 33.7578 9.99988L33.7578 7.99988L33.7578 5.99988C30.0256 5.99994 27.0002 9.02556 27 12.7576L29 12.7577ZM33.7578 7.99988V9.99988H165.242V7.99988V5.99988H33.7578V7.99988ZM165.242 7.99988L165.242 9.99988C166.765 9.9999 168 11.2346 168 12.7578L170 12.7577L172 12.7576C172 9.02556 168.974 5.99994 165.242 5.99988L165.242 7.99988ZM170 12.7577H168V33.2421H170H172V12.7577H170ZM170 33.2421H168C168 34.7651 166.765 35.9999 165.242 35.9999L165.242 37.9999L165.242 39.9999C168.974 39.9998 172 36.9744 172 33.2421H170ZM165.242 37.9999V35.9999H160V37.9999V39.9999H165.242V37.9999ZM160 37.9999H158V56.9999H160H162V37.9999H160ZM160 56.9999V58.9999H176V56.9999V54.9999H160V56.9999Z" fill="#555555" mask="url(#path-1-inside-1_7_41)"/>
<path d="M67.368 107.832H71.976V110.264C71.976 112.312 71.5707 114.253 70.76 116.088C69.9493 117.923 68.8187 119.629 67.368 121.208C65.9173 122.744 64.232 124.109 62.312 125.304C60.392 126.499 58.3227 127.523 56.104 128.376C53.928 129.187 51.6667 129.784 49.32 130.168L47.272 125.944C49.32 125.688 51.304 125.219 53.224 124.536C55.1867 123.811 57.0213 122.957 58.728 121.976C60.4347 120.995 61.928 119.885 63.208 118.648C64.5307 117.411 65.5547 116.088 66.28 114.68C67.0053 113.229 67.368 111.757 67.368 110.264V107.832ZM68.712 107.832H73.32V110.264C73.32 111.757 73.6827 113.229 74.408 114.68C75.1333 116.088 76.136 117.411 77.416 118.648C78.7387 119.885 80.2533 120.995 81.96 121.976C83.6667 122.957 85.48 123.811 87.4 124.536C89.3627 125.219 91.368 125.688 93.416 125.944L91.432 130.168C89.0853 129.784 86.8027 129.187 84.584 128.376C82.3653 127.523 80.296 126.499 78.376 125.304C76.456 124.109 74.7707 122.744 73.32 121.208C71.8693 119.629 70.7387 117.923 69.928 116.088C69.1173 114.253 68.712 112.312 68.712 110.264V107.832ZM67.624 137.912H72.872V159.928H67.624V137.912ZM44.2 135.032H96.488V139.384H44.2V135.032ZM49.128 105.656H91.496V109.944H49.128V105.656ZM142.627 102.136H147.939V141.368H142.627V102.136ZM145.699 119.544H156.387V123.96H145.699V119.544ZM129.379 142.072C135.352 142.072 140.003 142.84 143.331 144.376C146.659 145.912 148.323 148.131 148.323 151.032C148.323 153.891 146.659 156.088 143.331 157.624C140.003 159.16 135.352 159.928 129.379 159.928C123.363 159.928 118.691 159.16 115.363 157.624C112.078 156.088 110.435 153.891 110.435 151.032C110.435 148.131 112.078 145.912 115.363 144.376C118.691 142.84 123.363 142.072 129.379 142.072ZM129.379 146.04C124.984 146.04 121.614 146.467 119.267 147.32C116.92 148.173 115.747 149.411 115.747 151.032C115.747 152.611 116.92 153.827 119.267 154.68C121.614 155.533 124.984 155.96 129.379 155.96C133.731 155.96 137.08 155.533 139.427 154.68C141.774 153.827 142.947 152.611 142.947 151.032C142.947 149.411 141.774 148.173 139.427 147.32C137.08 146.467 133.731 146.04 129.379 146.04ZM118.243 128.44H123.491V136.376H118.243V128.44ZM103.395 138.808L102.755 134.584C106.211 134.584 110.008 134.563 114.147 134.52C118.286 134.435 122.488 134.264 126.755 134.008C131.064 133.709 135.203 133.283 139.171 132.728L139.555 136.44C135.459 137.165 131.278 137.699 127.011 138.04C122.744 138.381 118.584 138.595 114.531 138.68C110.52 138.765 106.808 138.808 103.395 138.808ZM104.227 107.064H137.443V111.096H104.227V107.064ZM120.803 113.464C124.899 113.464 128.163 114.189 130.595 115.64C133.07 117.091 134.307 119.096 134.307 121.656C134.307 124.216 133.07 126.243 130.595 127.736C128.163 129.187 124.899 129.912 120.803 129.912C116.707 129.912 113.422 129.187 110.947 127.736C108.515 126.243 107.299 124.216 107.299 121.656C107.299 119.096 108.515 117.091 110.947 115.64C113.422 114.189 116.707 113.464 120.803 113.464ZM120.803 117.112C118.2 117.112 116.131 117.539 114.595 118.392C113.102 119.203 112.355 120.291 112.355 121.656C112.355 123.107 113.102 124.237 114.595 125.048C116.131 125.859 118.2 126.264 120.803 126.264C123.406 126.264 125.454 125.859 126.947 125.048C128.483 124.237 129.251 123.107 129.251 121.656C129.251 120.291 128.483 119.203 126.947 118.392C125.454 117.539 123.406 117.112 120.803 117.112ZM118.243 101.624H123.491V108.6H118.243V101.624Z" fill="black"/>
</svg>
