<svg width="200" height="200" viewBox="0 0 200 200" fill="none" xmlns="http://www.w3.org/2000/svg">
<mask id="path-1-inside-1_29_2" fill="white">
<path d="M176 56.9999C182.627 56.9999 188 62.3725 188 68.9999V180C188 186.627 182.627 192 176 192H23C16.3726 192 11 186.627 11 180V68.9999C11.0001 62.3725 16.3726 56.9999 23 56.9999H39V37.9999H33.7578C31.1301 37.9998 29 35.8698 29 33.2421V12.7577C29.0001 10.1301 31.1302 7.99992 33.7578 7.99988H165.242C167.87 7.99992 170 10.1301 170 12.7577V33.2421C170 35.8698 167.87 37.9998 165.242 37.9999H160V56.9999H176Z"/>
</mask>
<path d="M188 68.9999H190V68.9999L188 68.9999ZM176 192V194V192ZM11 68.9999L9 68.9999V68.9999H11ZM23 56.9999V54.9999V56.9999ZM39 56.9999V58.9999H41V56.9999H39ZM39 37.9999H41V35.9999H39V37.9999ZM33.7578 37.9999L33.7578 39.9999H33.7578V37.9999ZM29 12.7577L27 12.7576V12.7577H29ZM33.7578 7.99988V5.99988H33.7578L33.7578 7.99988ZM165.242 7.99988L165.242 5.99988H165.242V7.99988ZM170 12.7577H172V12.7576L170 12.7577ZM165.242 37.9999V39.9999H165.242L165.242 37.9999ZM160 37.9999V35.9999H158V37.9999H160ZM160 56.9999H158V58.9999H160V56.9999ZM176 56.9999V58.9999C181.523 58.9999 186 63.4771 186 68.9999L188 68.9999L190 68.9999C190 61.268 183.732 54.9999 176 54.9999V56.9999ZM188 68.9999H186V180H188H190V68.9999H188ZM188 180H186C186 185.523 181.523 190 176 190V192V194C183.732 194 190 187.732 190 180H188ZM176 192V190H23V192V194H176V192ZM23 192V190C17.4772 190 13 185.523 13 180H11H9C9 187.732 15.268 194 23 194V192ZM11 180H13V68.9999H11H9V180H11ZM11 68.9999L13 68.9999C13.0001 63.4771 17.4772 58.9999 23 58.9999V56.9999V54.9999C15.268 54.9999 9.00008 61.268 9 68.9999L11 68.9999ZM23 56.9999V58.9999H39V56.9999V54.9999H23V56.9999ZM39 56.9999H41V37.9999H39H37V56.9999H39ZM39 37.9999V35.9999H33.7578V37.9999V39.9999H39V37.9999ZM33.7578 37.9999L33.7578 35.9999C32.2347 35.9999 31 34.7651 31 33.2421H29H27C27 36.9744 30.0256 39.9998 33.7578 39.9999L33.7578 37.9999ZM29 33.2421H31V12.7577H29H27V33.2421H29ZM29 12.7577L31 12.7578C31.0001 11.2346 32.2348 9.9999 33.7578 9.99988L33.7578 7.99988L33.7578 5.99988C30.0256 5.99994 27.0002 9.02556 27 12.7576L29 12.7577ZM33.7578 7.99988V9.99988H165.242V7.99988V5.99988H33.7578V7.99988ZM165.242 7.99988L165.242 9.99988C166.765 9.9999 168 11.2346 168 12.7578L170 12.7577L172 12.7576C172 9.02556 168.974 5.99994 165.242 5.99988L165.242 7.99988ZM170 12.7577H168V33.2421H170H172V12.7577H170ZM170 33.2421H168C168 34.7651 166.765 35.9999 165.242 35.9999L165.242 37.9999L165.242 39.9999C168.974 39.9998 172 36.9744 172 33.2421H170ZM165.242 37.9999V35.9999H160V37.9999V39.9999H165.242V37.9999ZM160 37.9999H158V56.9999H160H162V37.9999H160ZM160 56.9999V58.9999H176V56.9999V54.9999H160V56.9999Z" fill="#555555" mask="url(#path-1-inside-1_29_2)"/>
<path d="M84.416 102.072H89.6V132.6H84.416V102.072ZM85.888 114.744H96.768V119.16H85.888V114.744ZM44.736 104.824H49.216V112.888H55.744V104.824H60.224V129.592H44.736V104.824ZM49.216 117.048V125.368H55.744V117.048H49.216ZM63.808 104.824H68.288V112.888H74.752V104.824H79.232V129.592H63.808V104.824ZM68.288 117.048V125.368H74.752V117.048H68.288ZM51.84 135.16H89.6V148.856H57.152V157.304H51.968V144.888H84.416V139.384H51.84V135.16ZM51.968 155.064H91.712V159.352H51.968V155.064ZM141.691 102.072H147.003V136.696H141.691V102.072ZM145.531 117.048H155.515V121.464H145.531V117.048ZM125.691 106.36H131.323C131.323 111.267 130.235 115.725 128.059 119.736C125.883 123.747 122.768 127.203 118.715 130.104C114.704 133.005 109.904 135.267 104.315 136.888L102.139 132.6C107.046 131.149 111.248 129.251 114.747 126.904C118.246 124.557 120.934 121.848 122.811 118.776C124.731 115.704 125.691 112.355 125.691 108.728V106.36ZM104.635 106.36H128.699V110.712H104.635V106.36ZM128.827 137.4C132.667 137.4 135.995 137.848 138.811 138.744C141.627 139.64 143.803 140.941 145.339 142.648C146.875 144.312 147.643 146.317 147.643 148.664C147.643 150.968 146.875 152.952 145.339 154.616C143.803 156.28 141.627 157.56 138.811 158.456C135.995 159.395 132.667 159.864 128.827 159.864C125.03 159.864 121.702 159.395 118.843 158.456C116.027 157.56 113.83 156.28 112.251 154.616C110.715 152.952 109.947 150.968 109.947 148.664C109.947 146.317 110.715 144.312 112.251 142.648C113.83 140.941 116.027 139.64 118.843 138.744C121.702 137.848 125.03 137.4 128.827 137.4ZM128.827 141.624C126.096 141.624 123.707 141.923 121.659 142.52C119.611 143.075 118.011 143.885 116.859 144.952C115.75 145.976 115.195 147.213 115.195 148.664C115.195 150.072 115.75 151.309 116.859 152.376C118.011 153.4 119.611 154.211 121.659 154.808C123.707 155.363 126.096 155.64 128.827 155.64C131.643 155.64 134.054 155.363 136.059 154.808C138.064 154.211 139.622 153.4 140.731 152.376C141.883 151.309 142.459 150.072 142.459 148.664C142.459 147.213 141.883 145.976 140.731 144.952C139.622 143.885 138.064 143.075 136.059 142.52C134.054 141.923 131.643 141.624 128.827 141.624Z" fill="black"/>
</svg>
