<svg width="200" height="200" viewBox="0 0 200 200" fill="none" xmlns="http://www.w3.org/2000/svg">
<mask id="path-1-inside-1_7_36" fill="white">
<path d="M176 56.9999C182.627 56.9999 188 62.3725 188 68.9999V180C188 186.627 182.627 192 176 192H23C16.3726 192 11 186.627 11 180V68.9999C11.0001 62.3725 16.3726 56.9999 23 56.9999H39V37.9999H33.7578C31.1301 37.9998 29 35.8698 29 33.2421V12.7577C29.0001 10.1301 31.1302 7.99992 33.7578 7.99988H165.242C167.87 7.99992 170 10.1301 170 12.7577V33.2421C170 35.8698 167.87 37.9998 165.242 37.9999H160V56.9999H176Z"/>
</mask>
<path d="M188 68.9999H190V68.9999L188 68.9999ZM176 192V194V192ZM11 68.9999L9 68.9999V68.9999H11ZM23 56.9999V54.9999V56.9999ZM39 56.9999V58.9999H41V56.9999H39ZM39 37.9999H41V35.9999H39V37.9999ZM33.7578 37.9999L33.7578 39.9999H33.7578V37.9999ZM29 12.7577L27 12.7576V12.7577H29ZM33.7578 7.99988V5.99988H33.7578L33.7578 7.99988ZM165.242 7.99988L165.242 5.99988H165.242V7.99988ZM170 12.7577H172V12.7576L170 12.7577ZM165.242 37.9999V39.9999H165.242L165.242 37.9999ZM160 37.9999V35.9999H158V37.9999H160ZM160 56.9999H158V58.9999H160V56.9999ZM176 56.9999V58.9999C181.523 58.9999 186 63.4771 186 68.9999L188 68.9999L190 68.9999C190 61.268 183.732 54.9999 176 54.9999V56.9999ZM188 68.9999H186V180H188H190V68.9999H188ZM188 180H186C186 185.523 181.523 190 176 190V192V194C183.732 194 190 187.732 190 180H188ZM176 192V190H23V192V194H176V192ZM23 192V190C17.4772 190 13 185.523 13 180H11H9C9 187.732 15.268 194 23 194V192ZM11 180H13V68.9999H11H9V180H11ZM11 68.9999L13 68.9999C13.0001 63.4771 17.4772 58.9999 23 58.9999V56.9999V54.9999C15.268 54.9999 9.00008 61.268 9 68.9999L11 68.9999ZM23 56.9999V58.9999H39V56.9999V54.9999H23V56.9999ZM39 56.9999H41V37.9999H39H37V56.9999H39ZM39 37.9999V35.9999H33.7578V37.9999V39.9999H39V37.9999ZM33.7578 37.9999L33.7578 35.9999C32.2347 35.9999 31 34.7651 31 33.2421H29H27C27 36.9744 30.0256 39.9998 33.7578 39.9999L33.7578 37.9999ZM29 33.2421H31V12.7577H29H27V33.2421H29ZM29 12.7577L31 12.7578C31.0001 11.2346 32.2348 9.9999 33.7578 9.99988L33.7578 7.99988L33.7578 5.99988C30.0256 5.99994 27.0002 9.02556 27 12.7576L29 12.7577ZM33.7578 7.99988V9.99988H165.242V7.99988V5.99988H33.7578V7.99988ZM165.242 7.99988L165.242 9.99988C166.765 9.9999 168 11.2346 168 12.7578L170 12.7577L172 12.7576C172 9.02556 168.974 5.99994 165.242 5.99988L165.242 7.99988ZM170 12.7577H168V33.2421H170H172V12.7577H170ZM170 33.2421H168C168 34.7651 166.765 35.9999 165.242 35.9999L165.242 37.9999L165.242 39.9999C168.974 39.9998 172 36.9744 172 33.2421H170ZM165.242 37.9999V35.9999H160V37.9999V39.9999H165.242V37.9999ZM160 37.9999H158V56.9999H160H162V37.9999H160ZM160 56.9999V58.9999H176V56.9999V54.9999H160V56.9999Z" fill="#555555" mask="url(#path-1-inside-1_7_36)"/>
<path d="M43.904 108.28H76.16V112.632H43.904V108.28ZM43.136 145.656L42.496 141.176C45.952 141.176 49.728 141.155 53.824 141.112C57.92 141.027 62.1227 140.877 66.432 140.664C70.7413 140.408 74.8587 140.045 78.784 139.576L79.104 143.544C75.0933 144.184 70.9547 144.653 66.688 144.952C62.4213 145.251 58.2613 145.443 54.208 145.528C50.1973 145.613 46.5067 145.656 43.136 145.656ZM50.112 111.608H55.296V142.392H50.112V111.608ZM64.768 111.608H69.888V142.392H64.768V111.608ZM82.368 102.072H87.68V159.992H82.368V102.072ZM86.464 125.24H97.152V129.656H86.464V125.24ZM141.691 102.136H147.003V137.016H141.691V102.136ZM145.339 116.6H155.579V121.016H145.339V116.6ZM104.571 129.336H109.115C112.614 129.336 115.835 129.293 118.779 129.208C121.766 129.123 124.646 128.952 127.419 128.696C130.235 128.397 133.136 127.992 136.123 127.48L136.635 131.832C133.563 132.344 130.598 132.749 127.739 133.048C124.923 133.304 122 133.496 118.971 133.624C115.984 133.709 112.699 133.752 109.115 133.752H104.571V129.336ZM104.443 105.72H130.491V121.4H109.819V132.152H104.571V117.304H125.307V110.008H104.443V105.72ZM128.507 138.808C132.432 138.808 135.803 139.235 138.619 140.088C141.478 140.941 143.675 142.136 145.211 143.672C146.747 145.208 147.515 147.107 147.515 149.368C147.515 152.696 145.808 155.277 142.395 157.112C139.024 158.947 134.395 159.864 128.507 159.864C124.539 159.864 121.126 159.459 118.267 158.648C115.451 157.837 113.275 156.643 111.739 155.064C110.203 153.485 109.435 151.587 109.435 149.368C109.435 147.107 110.203 145.208 111.739 143.672C113.275 142.136 115.451 140.941 118.267 140.088C121.126 139.235 124.539 138.808 128.507 138.808ZM128.507 142.968C125.606 142.968 123.11 143.224 121.019 143.736C118.971 144.248 117.392 144.973 116.283 145.912C115.174 146.851 114.619 148.003 114.619 149.368C114.619 150.691 115.174 151.843 116.283 152.824C117.392 153.763 118.971 154.488 121.019 155C123.11 155.512 125.606 155.768 128.507 155.768C131.366 155.768 133.84 155.512 135.931 155C138.022 154.488 139.6 153.763 140.667 152.824C141.776 151.843 142.331 150.691 142.331 149.368C142.331 148.003 141.776 146.851 140.667 145.912C139.6 144.973 138.022 144.248 135.931 143.736C133.84 143.224 131.366 142.968 128.507 142.968Z" fill="black"/>
</svg>
